HIERARCHY
ROOT Hips
{
  OFFSET 0.0273292 -0.436096 0.279869
  CHANNELS 6 Xposition Yposition Zposition Zrotation Xrotation Yrotation
  JOINT LHipJoint
  {
    OFFSET 0 0 0
    CHANNELS 6 Xposition Yposition Zposition Zrotation Xrotation Yrotation
    JOINT LeftUpLeg
    {
      OFFSET 1.36306 -1.79463 0
      CHANNELS 6 Xposition Yposition Zposition Zrotation Xrotation Yrotation
      JOINT LeftLeg
      {
        OFFSET 2.44807 -6.72613 0.000295034
        CHANNELS 6 Xposition Yposition Zposition Zrotation Xrotation Yrotation
        JOINT LeftFoot
        {
          OFFSET 2.5622 -7.03959 3.59965e-05
          CHANNELS 6 Xposition Yposition Zposition Zrotation Xrotation Yrotation
          JOINT LeftToeBase
          {
            OFFSET 0.15764 -0.43311 2.32255
            CHANNELS 6 Xposition Yposition Zposition Zrotation Xrotation Yrotation
            End Site
            {
              OFFSET 0 0 0
            }
          }
        }
      }
    }
  }
  JOINT RHipJoint
  {
    OFFSET 0 0 0
    CHANNELS 6 Xposition Yposition Zposition Zrotation Xrotation Yrotation
    JOINT RightUpLeg
    {
      OFFSET -1.30552 -1.79463 0
      CHANNELS 6 Xposition Yposition Zposition Zrotation Xrotation Yrotation
      JOINT RightLeg
      {
        OFFSET -2.54234 -6.98562 -0.000396375
        CHANNELS 6 Xposition Yposition Zposition Zrotation Xrotation Yrotation
        JOINT RightFoot
        {
          OFFSET -2.56826 -7.05623 -4.47982e-05
          CHANNELS 6 Xposition Yposition Zposition Zrotation Xrotation Yrotation
          JOINT RightToeBase
          {
            OFFSET -0.16473 -0.45259 2.36315
            CHANNELS 6 Xposition Yposition Zposition Zrotation Xrotation Yrotation
            End Site
            {
              OFFSET 0 0 0
            }
          }
        }
      }
    }
  }
  JOINT LowerBack
  {
    OFFSET 0 0 0
    CHANNELS 6 Xposition Yposition Zposition Zrotation Xrotation Yrotation
    JOINT Spine
    {
      OFFSET 0.0282699 2.03559 0
      CHANNELS 6 Xposition Yposition Zposition Zrotation Xrotation Yrotation
      JOINT Spine1
      {
        OFFSET 0.05672 2.04885 -0.04275
        CHANNELS 6 Xposition Yposition Zposition Zrotation Xrotation Yrotation
        JOINT Neck
        {
          OFFSET 0 0 0
          CHANNELS 6 Xposition Yposition Zposition Zrotation Xrotation Yrotation
          JOINT Neck1
          {
            OFFSET -0.05417 1.74624 0.17202
            CHANNELS 6 Xposition Yposition Zposition Zrotation Xrotation Yrotation
            JOINT Head
            {
              OFFSET 0.10407 1.76136 -0.12397
              CHANNELS 6 Xposition Yposition Zposition Zrotation Xrotation Yrotation
              End Site
              {
                OFFSET 0 0 0
              }
            }
          }
        }
        JOINT LeftShoulder
        {
          OFFSET 0 0 0
          CHANNELS 6 Xposition Yposition Zposition Zrotation Xrotation Yrotation
          JOINT LeftArm
          {
            OFFSET 3.36241 1.20089 -0.311211
            CHANNELS 6 Xposition Yposition Zposition Zrotation Xrotation Yrotation
            JOINT LeftForeArm
            {
              OFFSET 4.983 0.000197398 0.000166057
              CHANNELS 6 Xposition Yposition Zposition Zrotation Xrotation Yrotation
              JOINT LeftHand
              {
                OFFSET 3.48356 0 1.87849e-05
                CHANNELS 6 Xposition Yposition Zposition Zrotation Xrotation Yrotation
                JOINT LeftFingerBase
                {
                  OFFSET 0 0 0
                  CHANNELS 6 Xposition Yposition Zposition Zrotation Xrotation Yrotation
                  JOINT LeftHandIndex1
                  {
                    OFFSET 0.71526 0 0
                    CHANNELS 6 Xposition Yposition Zposition Zrotation Xrotation Yrotation
                    End Site
                    {
                      OFFSET 0 0 0
                    }
                  }
                }
                JOINT LThumb
                {
                  OFFSET 0 0 0
                  CHANNELS 6 Xposition Yposition Zposition Zrotation Xrotation Yrotation
                  End Site
                  {
                    OFFSET 0 0 0
                  }
                }
              }
            }
          }
        }
        JOINT RightShoulder
        {
          OFFSET 0 0 0
          CHANNELS 6 Xposition Yposition Zposition Zrotation Xrotation Yrotation
          JOINT RightArm
          {
            OFFSET -3.1366 1.37405 -0.404651
            CHANNELS 6 Xposition Yposition Zposition Zrotation Xrotation Yrotation
            JOINT RightForeArm
            {
              OFFSET -5.2419 -5.8808e-05 -0.000165864
              CHANNELS 6 Xposition Yposition Zposition Zrotation Xrotation Yrotation
              JOINT RightHand
              {
                OFFSET -3.44417 0 -2.00002e-05
                CHANNELS 6 Xposition Yposition Zposition Zrotation Xrotation Yrotation
                JOINT RightFingerBase
                {
                  OFFSET 0 0 0
                  CHANNELS 6 Xposition Yposition Zposition Zrotation Xrotation Yrotation
                  JOINT RightHandIndex1
                  {
                    OFFSET -0.62253 0 0
                    CHANNELS 6 Xposition Yposition Zposition Zrotation Xrotation Yrotation
                    End Site
                    {
                      OFFSET 0 0 0
                    }
                  }
                }
                JOINT RThumb
                {
                  OFFSET 0 0 0
                  CHANNELS 6 Xposition Yposition Zposition Zrotation Xrotation Yrotation
                  End Site
                  {
                    OFFSET 0 0 0
                  }
                }
              }
            }
          }
        }
      }
    }
  }
}
MOTION
Frames:	5
Frame Time:	0.00833333
-0.0741616 2.09601 -0.0580401 0.788616 -2.32954 2.03168 0 0 0 1.61513e-16 7.95139e-16 -7.95139e-16 1.36306 -1.79463 6.37822e-08 -12.7125 -3.37912 9.78675 2.44809 -6.72614 -2.88661e-05 -0.451054 9.1768 -1.56182 2.5622 -7.03959 -1.87459e-05 -6.62092 -4.71251 -1.7417 0.15764 -0.43311 2.32255 5.46658e-16 0 -1.59028e-15 0 0 0 1.61513e-16 7.95139e-16 -7.95139e-16 -1.30552 -1.79463 -9.59887e-09 17.8604 -12.6078 -8.3013 -2.54244 -6.9856 0.000503903 2.47745 25.8082 -8.45448 -2.56826 -7.05622 4.51957e-05 -0.858882 -14.6998 5.11599 -0.16473 -0.45259 2.36315 -4.32357e-15 -3.97569e-16 -0 0 0 0 1.61513e-16 7.95139e-16 -7.95139e-16 0.02827 2.03559 4.47485e-07 0.674626 3.33886 0.555944 0.05672 2.04885 -0.04275 6.27414e-16 1.98785e-16 3.97569e-16 0 0 0 4.22417e-16 1.98785e-16 7.95139e-16 -0.05417 1.74624 0.17202 0.0765031 1.54598 -0.2781 0.10407 1.76136 -0.12397 -1.61513e-16 -3.97569e-16 -7.95139e-16 0 0 0 4.22417e-16 1.98785e-16 7.95139e-16 3.36241 1.20089 -0.31121 -81.8917 5.67457 -0.902497 4.983 0.000188411 0.000168558 1.00086 0.293338 -10.1401 3.48356 4.97784e-06 -1.0964e-05 0.000100551 1.59028e-15 0.000188127 0 0 0 -2.38542e-15 0 -1.59028e-15 0.71526 0 0 -8.94531e-16 -3.97569e-16 1.59028e-15 0 0 0 -2.38542e-15 0 -1.59028e-15 0 0 0 4.22417e-16 1.98785e-16 7.95139e-16 -3.1366 1.37405 -0.40465 82.6587 23.9958 0.599445 -5.24191 0.000244453 0.00010752 -1.00038 0.285676 9.80351 -3.44417 6.42399e-06 -1.20969e-05 -7.82347e-05 9.54166e-15 -0.000188603 0 0 0 0 3.18055e-15 -0 -0.62253 0 0 0 0 -0 0 0 0 0 3.18055e-15 -0 
-0.103416 2.05846 -0.0623049 1.05807 -2.18841 2.23055 0 0 0 -3.60297e-16 3.97569e-16 -7.95139e-16 1.36306 -1.79463 6.37822e-08 -12.7453 -3.68504 9.47559 2.44809 -6.72614 -2.88661e-05 -0.345208 9.37501 -1.35118 2.5622 -7.03959 -1.87459e-05 -6.62437 -4.78657 -1.77398 0.15764 -0.43311 2.32255 -1.83876e-15 7.95139e-16 -0 0 0 0 -3.60297e-16 3.97569e-16 -7.95139e-16 -1.30552 -1.79463 -9.59887e-09 17.8729 -12.8937 -8.09281 -2.54244 -6.9856 0.000503903 2.3391 25.9356 -8.5837 -2.56826 -7.05622 4.51957e-05 -0.765033 -14.7042 5.12749 -0.16473 -0.45259 2.36315 -2.18663e-15 3.97569e-16 1.59028e-15 0 0 0 -3.60297e-16 3.97569e-16 -7.95139e-16 0.02827 2.03559 4.47485e-07 0.539851 3.30649 0.34193 0.05672 2.04885 -0.04275 1.42876e-16 0 3.97569e-16 0 0 0 1.55301e-16 0 -3.97569e-16 -0.05417 1.74624 0.17202 0.18475 1.44326 -0.373744 0.10407 1.76136 -0.12397 -7.45443e-17 3.97569e-16 -7.95139e-16 0 0 0 1.55301e-16 0 -3.97569e-16 3.36241 1.20089 -0.31121 -81.1394 6.49585 -0.553757 4.983 0.000188411 0.000168558 1.12361 0.0300459 -11.5531 3.48356 4.97784e-06 -1.0964e-05 -0.451477 0.256084 -0.0506986 0 0 0 3.18055e-15 7.95139e-16 1.59028e-15 0.71526 8.88178e-16 1.11022e-16 -9.93923e-17 1.59028e-15 3.18055e-15 0 0 0 3.18055e-15 7.95139e-16 1.59028e-15 0 0 0 1.55301e-16 0 -3.97569e-16 -3.1366 1.37405 -0.40465 82.0214 24.5568 1.12676 -5.24191 0.000244453 0.00010752 -1.06405 0.608747 10.5263 -3.44417 6.42399e-06 -1.20969e-05 1.48631 0.190015 0.26543 0 0 0 7.95139e-16 3.18055e-15 -0 -0.62253 -4.44089e-16 0 -0 -3.18055e-15 -0 0 0 0 7.95139e-16 3.18055e-15 -0 
-0.179296 1.97517 -0.073114 1.67585 -1.75433 2.67272 0 0 0 -3.97569e-16 -3.97569e-16 7.95139e-16 1.36306 -1.79463 6.37822e-08 -12.7917 -4.63903 8.72282 2.44809 -6.72614 -2.88661e-05 -0.140234 10.0086 -0.739049 2.5622 -7.03959 -1.87459e-05 -6.62903 -5.00732 -1.86874 0.15764 -0.43311 2.32255 5.26779e-15 -3.97569e-16 -1.59028e-15 0 0 0 -3.97569e-16 -3.97569e-16 7.95139e-16 -1.30552 -1.79463 -9.59887e-09 17.8962 -13.7847 -7.54076 -2.54244 -6.9856 0.000503903 2.09195 26.4106 -8.93028 -2.56826 -7.05622 4.51957e-05 -0.551418 -14.7355 5.17326 -0.16473 -0.45259 2.36315 -9.93923e-17 -3.97569e-16 7.95139e-16 0 0 0 -3.97569e-16 -3.97569e-16 7.95139e-16 0.02827 2.03559 4.47485e-07 0.207445 3.2351 -0.169094 0.05672 2.04885 -0.04275 -2.60905e-16 1.98785e-16 -3.97569e-16 0 0 0 -2.48481e-16 3.97569e-16 -7.95139e-16 -0.05417 1.74624 0.17202 0.458413 1.16917 -0.584124 0.10407 1.76136 -0.12397 -2.60905e-16 -3.97569e-16 -0 0 0 0 -2.48481e-16 3.97569e-16 -7.95139e-16 3.36241 1.20089 -0.31121 -79.0866 8.30201 0.265792 4.983 0.000188411 0.000168558 1.49889 -0.759343 -15.1668 3.48356 4.97784e-06 -1.0964e-05 -1.44335 0.819465 -0.162664 0 0 0 1.98785e-15 7.95139e-16 -0 0.71526 8.88178e-16 0 -1.39149e-15 -7.95139e-16 3.18055e-15 0 0 0 1.98785e-15 7.95139e-16 -0 0 0 0 -2.48481e-16 3.97569e-16 -7.95139e-16 -3.1366 1.37405 -0.40465 80.0189 25.7817 2.43339 -5.24191 0.000244453 0.00010752 -1.26434 1.40603 12.5902 -3.44417 6.42399e-06 -1.20969e-05 4.98648 0.607973 0.933446 0 0 0 -7.95139e-16 -3.18055e-15 -0 -0.62253 0 0 -1.59028e-15 0 -0 0 0 0 -7.95139e-16 -3.18055e-15 -0 
-0.283973 1.89019 -0.0874891 2.35543 -1.01146 3.12677 0 0 0 -3.41661e-16 1.98785e-16 -1.19271e-15 1.36306 -1.79463 6.37822e-08 -12.7846 -6.29662 7.8007 2.44809 -6.72614 -2.88661e-05 -0.0198452 11.135 0.247641 2.5622 -7.03959 -1.87459e-05 -6.62704 -5.37258 -2.02295 0.15764 -0.43311 2.32255 1.09332e-15 -3.97569e-16 -0 0 0 0 -3.41661e-16 1.98785e-16 -1.19271e-15 -1.30552 -1.79463 -9.59887e-09 17.9219 -15.3312 -6.75385 -2.54244 -6.9856 0.000503903 1.99553 27.371 -9.43745 -2.56826 -7.05622 4.51957e-05 -0.319755 -14.8212 5.27024 -0.16473 -0.45259 2.36315 -1.59028e-15 0 -0 0 0 0 -3.41661e-16 1.98785e-16 -1.19271e-15 0.02827 2.03559 4.47485e-07 -0.213982 3.16339 -0.780644 0.05672 2.04885 -0.04275 2.48481e-17 0 3.97569e-16 0 0 0 4.34841e-16 -3.97569e-16 -0 -0.05417 1.74624 0.17202 0.821441 0.774851 -0.794452 0.10407 1.76136 -0.12397 4.96962e-17 0 -1.98785e-16 0 0 0 4.34841e-16 -3.97569e-16 -0 3.36241 1.20089 -0.31121 -76.0061 10.1058 1.21479 4.983 0.000188411 0.000168558 2.08386 -2.04555 -20.0495 3.48356 4.97784e-06 -1.0964e-05 -2.43301 1.38284 -0.274677 0 0 0 1.59028e-15 -1.59028e-15 -3.18055e-15 0.71526 -8.88178e-16 4.44089e-16 3.18055e-15 -1.59028e-15 -3.18055e-15 0 0 0 1.59028e-15 -1.59028e-15 -3.18055e-15 0 0 0 4.34841e-16 -3.97569e-16 -0 -3.1366 1.37405 -0.40465 76.5464 26.9836 4.09454 -5.24191 0.000244453 0.00010752 -1.63229 2.40996 15.8404 -3.44417 6.42399e-06 -1.20969e-05 9.06619 1.02558 1.81067 0 0 0 -1.59028e-15 3.18055e-15 3.18055e-15 -0.62253 0 4.44089e-16 1.59028e-15 -3.18055e-15 -3.18055e-15 0 0 0 -1.59028e-15 3.18055e-15 3.18055e-15 
-0.399621 1.84754 -0.102452 2.81903 0.0561793 3.36203 0 0 0 7.29524e-16 0 -0 1.36306 -1.79463 6.37822e-08 -12.6474 -8.71188 6.98396 2.44809 -6.72614 -2.88661e-05 -0.189228 12.8091 1.58756 2.5622 -7.03959 -1.87459e-05 -6.61135 -5.88013 -2.23368 0.15764 -0.43311 2.32255 6.16232e-15 -7.95139e-16 -0 0 0 0 7.29524e-16 0 -0 -1.30552 -1.79463 -9.59887e-09 17.9514 -17.5844 -5.83931 -2.54244 -6.9856 0.000503903 2.31986 28.9538 -10.057 -2.56826 -7.05622 4.51957e-05 -0.171225 -14.9884 5.43556 -0.16473 -0.45259 2.36315 -3.8266e-15 0 -7.95139e-16 0 0 0 7.29524e-16 0 -0 0.02827 2.03559 4.47485e-07 -0.613578 3.13042 -1.29636 0.05672 2.04885 -0.04275 -2.75869e-33 3.97569e-16 3.97569e-16 0 0 0 2.48481e-17 7.95139e-16 3.97569e-16 -0.05417 1.74624 0.17202 1.201 0.311427 -0.890018 0.10407 1.76136 -0.12397 2.98177e-16 -3.97569e-16 1.98785e-16 0 0 0 2.48481e-17 7.95139e-16 3.97569e-16 3.36241 1.20089 -0.31121 -72.0775 10.9228 1.93811 4.983 0.000188411 0.000168558 2.8366 -3.76671 -25.2831 3.48356 4.97784e-06 -1.0964e-05 -2.88213 1.63891 -0.325617 0 0 0 1.59028e-15 -3.18055e-15 -6.36111e-15 0.71526 0 0 5.56597e-15 1.59028e-15 -0 0 0 0 1.59028e-15 -3.18055e-15 -6.36111e-15 0 0 0 2.48481e-17 7.95139e-16 3.97569e-16 -3.1366 1.37405 -0.40465 71.608 27.493 5.63633 -5.24191 0.000244453 0.00010752 -2.17048 3.34576 20.1208 -3.44417 6.42399e-06 -1.20969e-05 12.3076 1.21475 2.70367 0 0 0 1.59028e-15 0 -1.59028e-15 -0.62253 0 0 1.59028e-15 3.18055e-15 1.59028e-15 0 0 0 1.59028e-15 0 -1.59028e-15 
